<svg id="Layer_2" xmlns="http://www.w3.org/2000/svg" viewBox="0 0 999.74 143.516" width="100%" height="100%" preserveAspectRatio="none"><defs><style>.cls-1{fill:#006eff;}</style></defs><g id="Layer_1-2"><path class="cls-1" d="m313.572,62.811c-4.675-5.809-13.657-13.68-30.503-13.68-25.667,0-43.453,20.604-43.453,47.21s16.668,47.175,44.377,47.175c12.554,0,24.347-4.865,30.903-15.728h.383l2.353,13.477h18.976V3.151h-36.888v1.643l7.039,4.547c6.405,4.062,7.386,6.033,7.386,11.719v41.751h-.573Zm1.323,33.53c0,14.036-9.921,26.958-26.399,26.958s-26.407-12.922-26.407-26.958,9.925-26.979,26.407-26.979,26.399,12.924,26.399,26.979ZM120.821,51.39h34.566v89.875h-22.474v-70.679h-.014c0-7.461-.434-8.64-8.492-14.861l-3.586-2.868v-1.466ZM0,8.676v1.966l6.802,5.803c8.147,6.654,9.211,7.928,9.211,13.951v110.867h47.765c25.093,0,50.181-8.963,50.181-37.82,0-17.024-11.98-30.151-28.648-32.014v-.373c13.671-4.132,23.034-14.055,23.034-29.03,0-24.158-20.59-33.34-40.629-33.34H19.269v-.011H0Zm39.621,20.237h19.471c13.175,0,17.252,1.824,21.229,5.617,3.027,2.854,4.436,6.822,4.436,11.422,0,4.294-1.479,8.115-4.593,11.088-3.903,3.735-9.256,5.575-19.005,5.575h-21.538V28.913Zm0,53.928h22.666c19.099,0,28.072,4.877,28.072,18.737,0,17.408-16.833,19.474-29.002,19.474h-21.735v-38.211ZM205.907,25.336v26.054h24.015v19.095h-24.015v40.732c0,16.23,11.081,16.595,26.739,12.004l.72.464-11.146,17.872c-18.318,4.966-38.893-.318-38.893-29.718v-41.355l-.023,4.937c0-5.817-.939-5.52-13.564-15.899l-8.152-7.055v-1.078h21.826l8.218-26.054h14.274Zm-61.939,9.01c-8.239,0-14.219-6.374-14.219-13.478s5.98-13.498,14.219-13.498,14.611,5.812,14.611,13.498-6.364,13.478-14.611,13.478Zm252.821,14.785c-27.181,0-46.959,18.931-46.959,47.21s20.817,47.175,50.86,47.175c8.778,0,16.982-1.522,23.986-4.451l12.814-21.365-1.704-.883c-11.012,5.755-22.61,8.724-33.075,8.724-15.489,0-28.89-7.881-30.418-21.338h68.547v-6.206c0-31.245-18.985-48.866-44.05-48.866Zm-24.497,38.217c1.69-12.941,9.937-21.361,23.235-21.361,14.035,0,22.649,8.251,22.853,21.361h-46.088Zm616.184,41.098c.547-.246,1.024-.566,1.446-.962.421-.419.748-.911.983-1.497.234-.589.36-1.275.36-2.058,0-1.611-.465-2.858-1.402-3.705-.941-.865-2.419-1.29-4.472-1.29h-6.913v18.036h2.217v-8.014h3.736l5.07,8.014h2.607l-5.37-8.014c.617-.101,1.193-.288,1.74-.511Zm-4.844-1.367h-2.937v-6.255h4.078c.544,0,1.082.048,1.589.131.509.074.959.245,1.368.479.396.239.72.552.965.941.228.394.348.916.348,1.554,0,.767-.154,1.348-.452,1.787-.315.433-.714.746-1.215.934-.505.199-1.101.313-1.761.358-.645.049-1.313.071-1.983.071Zm-120.004-77.948c-27.152,0-46.916,18.931-46.916,47.21s20.802,47.175,50.839,47.175c8.779,0,16.999-1.522,23.994-4.451l12.798-21.365-1.701-.883c-10.989,5.755-22.616,8.724-33.062,8.724-15.497,0-28.892-7.881-30.407-21.338h68.553c2.955-35.218-15.965-55.072-44.098-55.072Zm-24.455,38.217c1.694-12.941,9.924-21.361,23.211-21.361,14.059,0,22.67,8.251,22.862,21.361h-46.073Zm156.079,29.514c-1.395-1.41-3.045-2.512-4.944-3.308-1.909-.796-3.961-1.193-6.167-1.193s-4.263.397-6.172,1.193c-1.89.796-3.549,1.898-4.948,3.308-1.401,1.414-2.498,3.062-3.296,4.965-.782,1.911-1.181,3.949-1.181,6.134,0,2.201.4,4.254,1.181,6.132.798,1.899,1.896,3.543,3.296,4.942,1.399,1.399,3.059,2.495,4.948,3.279,1.909.8,3.959,1.203,6.172,1.203s4.258-.402,6.167-1.203c1.9-.784,3.549-1.88,4.944-3.279,1.397-1.4,2.495-3.043,3.284-4.942.804-1.878,1.204-3.931,1.204-6.132,0-2.185-.4-4.222-1.204-6.134-.79-1.902-1.888-3.551-3.284-4.965Zm1.04,16.331c-.672,1.63-1.584,3.042-2.758,4.235-1.176,1.215-2.563,2.161-4.166,2.864-1.617.694-3.361,1.046-5.228,1.046-1.903,0-3.658-.352-5.274-1.046-1.603-.703-2.997-1.649-4.166-2.864-1.175-1.193-2.095-2.605-2.749-4.235-.659-1.62-.978-3.365-.978-5.233,0-1.886.319-3.626.978-5.25.655-1.616,1.574-3.03,2.749-4.236,1.17-1.194,2.564-2.15,4.166-2.836,1.616-.714,3.371-1.064,5.274-1.064,1.867,0,3.611.35,5.228,1.064,1.603.685,2.99,1.642,4.166,2.836,1.174,1.207,2.086,2.62,2.758,4.236.679,1.624,1.017,3.365,1.017,5.25,0,1.867-.338,3.612-1.017,5.233Zm-51.561-81.845v14.275h.377c4.862-10.311,14.767-16.491,26.582-16.491,2.794,0,5.428.576,8.059,1.324v21.717c-3.747-.938-7.308-1.687-10.865-1.687-21.152,0-24.153,17.775-24.153,22.669v48.111h-22.489v-66.406c0-11.325-.584-13.001-9.72-18.798l-5.649-3.714-.048-1h37.905ZM508.546,1.646l5.209,19-1.067.891c-17.992-7.085-31.932-2.558-31.932,13.155v16.33h20.878v19.174h-20.878v71.07h-22.558v-63.308c0-7.549-1.506-9.203-10.47-16.274l-11.434-9.297v-1.364h21.904v-16.397c0-24.402,15.904-39.869,50.347-32.978Zm41.097,47.485c-27.166,0-46.945,18.931-46.945,47.21s20.815,47.175,50.86,47.175c8.759,0,16.982-1.522,23.986-4.451l12.818-21.365-1.721-.883c-11.001,5.755-22.601,8.724-33.069,8.724-15.493,0-28.868-7.881-30.397-21.338h68.524c2.986-35.218-15.938-55.072-44.056-55.072Zm-24.468,38.217c1.664-12.941,9.921-21.361,23.231-21.361,14.034,0,22.638,8.251,22.828,21.361h-46.059Zm255.375-24.538c-4.683-5.809-13.646-13.68-30.509-13.68-25.651,0-43.45,20.604-43.45,47.21s16.653,47.175,44.364,47.175c12.566,0,24.357-4.865,30.912-15.728h.372l2.371,13.477h18.975V3.151h-37.758v1.643l3.132,2.081c10.824,6.818,12.176,8.83,12.176,20.537v35.399h-.584Zm1.317,33.53c0,14.036-9.932,26.958-26.412,26.958s-26.387-12.922-26.387-26.958,9.92-26.979,26.387-26.979,26.412,12.924,26.412,26.979Zm-169.741-44.993v.042h19.177v13.695h.373c7.401-10.999,18.615-15.954,28.607-15.954,21.237,0,33.45,14.554,33.45,35.388v56.745h-22.477v-49.999c0-9.903-2.492-21.905-18.242-21.905-14.8,0-20.586,10.871-20.586,22.836v49.068h-22.481v-66.406c0-11.325-.588-13.001-9.756-18.798l-5.605-3.714v-1h17.541Z"/></g></svg>