<svg id="Layer_2" xmlns="http://www.w3.org/2000/svg" viewBox="0 0 608.723 608.723" width="100%" height="100%" preserveAspectRatio="none"><defs><style>.cls-1{fill:#fff;}.cls-2{fill:red;}</style></defs><g id="Layer_1-2"><g><circle class="cls-1" cx="304.362" cy="304.362" r="292.235"/><path id="Layer_2-2" class="cls-2" d="M304.362,0C136.267,0,0,136.267,0,304.362s136.267,304.362,304.362,304.362,304.362-136.267,304.362-304.362S472.456,0,304.362,0Zm16.267,463.592l.069,.069h-114.798V197.268c0-14.513-2.545-17.539-22.113-33.566l-16.37-13.928v-4.746h162.739c48.148,0,97.636,22.079,97.636,80.131,0,36.008-22.492,59.841-55.335,69.78v.825c39.545,3.685,69.548,37.258,68.782,76.967,0,69.332-60.322,90.861-120.61,90.861Zm39.447-202.22c7.266-6.947,11.262-16.638,11.005-26.688,.496-10.259-3.363-20.251-10.627-27.513-9.664-9.114-19.362-13.481-50.933-13.481h-46.875v80.991h51.587c23.42,0,36.283-4.436,45.671-13.378l.172,.069Zm-42.955,61.904h-54.476v91.824h52.206c29.267,0,69.711-4.987,69.711-46.806,0-33.325-21.563-45.018-67.441-45.018Z"/></g></g></svg>